<svg xmlns="http://www.w3.org/2000/svg" width="32" height="32"><path style="isolation:auto;mix-blend-mode:normal" fill="#373748" d="M15.665 1020.862c-3.544 0-6.417 2.776-6.417 6.2a6.04 6.04 0 0 0 .913 3.17 6.638 6.638 0 0 0-.913-.068c-3.543 0-6.415 2.775-6.415 6.198 0 3.424 2.871 6.2 6.415 6.201a6.59 6.59 0 0 0 2.499-.486 6.444 6.444 0 0 0 2.823-2.247c.064-.092.12-.19.179-.285-.623 4.903-1.103 10.549-2.933 12.317h7.699c-1.83-1.768-2.31-7.414-2.933-12.317.06.095.115.193.179.285a6.444 6.444 0 0 0 2.823 2.247 6.59 6.59 0 0 0 2.499.486c3.544 0 6.417-2.776 6.417-6.2 0-3.425-2.874-6.2-6.417-6.2-.305 0-.61.026-.911.07a6.043 6.043 0 0 0 .91-3.17c.001-3.425-2.872-6.201-6.417-6.2z" color="#000" overflow="visible" transform="translate(0 -1020.362)"/></svg>