<svg xmlns="http://www.w3.org/2000/svg" enable-background="new 0 0 66 66" viewBox="0 0 66 66"><path d="M55.152 48.547H10.8434c-2.6735 0-4.8408 2.1672-4.8408 4.8407s2.1673 4.8408 4.8408 4.8408H55.152c2.6735 0 4.8407-2.1673 4.8407-4.8408S57.8255 48.547 55.152 48.547zM2 16.7733c0 2.8051 2.274 5.079 5.0791 5.079.0449 0 .0864-.012.131-.0132.2935 3.1343 2.0984 21.6005 2.5547 24.7078h46.4727c.013-.101 1.4359-12.7911 2.5531-24.7078.0444.0012.0857.0131.1303.0131 2.8051 0 5.079-2.2739 5.079-5.079 0-2.8051-2.2739-5.079-5.079-5.079-2.8051 0-5.079 2.274-5.079 5.079 0 1.013.3044 1.9516.8155 2.744-2.4057 2.1069-6.1151 5.6713-10.1962 11.2533-2.0488-3.5385-4.946-8.3436-8.4776-13.7039 1.3555-.912 2.2477-2.4596 2.2477-4.2162 0-2.8051-2.274-5.079-5.079-5.079-2.8051 0-5.0791 2.274-5.0791 5.079 0 1.668.815 3.1349 2.0566 4.0609-2.1362 3.2556-5.4058 8.364-8.6012 13.8572-4.369-6.0206-7.8588-9.1979-10.2163-11.1952.5323-.8032.8459-1.7643.8459-2.8002 0-2.8051-2.274-5.079-5.079-5.079C4.274 11.6943 2 13.9683 2 16.7733zM9.8976 20.9965c7.3263 6.188 11.0604 12.5797 11.8029 13.4856.1523-.2526 4.1375-7.392 10.2579-16.7086.3846.0931.7806.1561 1.1938.1561.322 0 .6347-.0375.9401-.0948 5.0924 7.7059 7.811 12.5686 10.1902 16.6458.5293-.6479 4.6613-7.3177 11.7658-13.5229.243.1672.5048.3071.7759.4305-1.4457 15.4508-2.1089 20.3892-2.407 23.1588H11.5803c-.2938-2.7277-.9238-7.333-2.4037-23.1592C9.4269 21.2738 9.671 21.148 9.8976 20.9965z"/></svg>