<svg xmlns="http://www.w3.org/2000/svg" enable-background="new 0 0 66 66" viewBox="0 0 66 66"><path d="M32.2682,40.1537c9.1624,0,12.5249-16.4973,0.6753-26.3571l-0.3274-0.2354h-0.7367l-0.2865,0.2354
		C19.8332,23.5816,23.0299,40.1537,32.2682,40.1537z M32.2682,15.9249c10.0255,9.1945,6.6491,22.1825,0,22.1825
		C25.6443,38.1074,22.1915,25.1497,32.2682,15.9249z"/><path d="M34.8764,34.6603c3.0685-3.7455,1.7246-10.8588-2.611-15.8173c-4.3355,4.9585-5.6794,12.0718-2.6109,15.8168
		C31.1938,36.5381,33.3591,36.5109,34.8764,34.6603z"/><path d="M1.2895,51.7064l0.0002,0.0007c0.1569,0.5381,0.7159,0.8443,1.2556,0.6931c20.2244-5.666,41.7403-5.4124,60.9084-0.0023
		c0.5405,0.1526,1.0995-0.1542,1.2567-0.6932c0.1594-0.5464-0.1553-1.1224-0.7029-1.2775
		c-1.6299-0.4616-3.2739-0.8867-4.9321-1.2693c1.2687-1.6064,1.985-3.622,1.985-5.74c0-5.0626-4.0485-9.1743-9.0693-9.3003
		c-0.5088-4.652-4.4583-8.2845-9.2431-8.2845v2.0464c4.0008,0,7.2552,3.2549,7.2552,7.2557s-3.2544,7.2557-7.2552,7.2557v2.0464
		c4.7774,0,8.7212-3.6216,9.2399-8.2632c3.8968,0.1142,7.0262,3.3159,7.0262,7.2439c0,2.0054-0.8287,3.8881-2.2305,5.2284
		c-25.9103-5.4443-45.2313-0.1223-48.7443,0.2661c-1.5859-1.3608-2.5272-3.3561-2.5272-5.4944c0-3.9291,3.1309-7.1317,7.0292-7.2441
		h0.0012c0.5191,4.6417,4.4629,8.2634,9.2404,8.2634v-2.0464c-4.0008,0-7.2552-3.2549-7.2552-7.2557s3.2544-7.2557,7.2552-7.2557
		v-2.0464c-4.7846,0-8.734,3.6324-9.243,8.2842c-5.0231,0.1235-9.0742,4.2364-9.0742,9.3007c0,2.2612,0.8185,4.3894,2.2408,6.0367
		c-1.2411,0.2982-2.4823,0.6218-3.7134,0.9708C1.4447,50.5806,1.13,51.1593,1.2895,51.7064z"/></svg>