<svg width="0" height="0" class="hidden">

  <symbol xmlns="http://www.w3.org/2000/svg" viewBox="0 0 32 32" id="card-tipe1">
    <path fill="#f05542" d="M8.358 1022.387c2.794-.23 5.421 1.752 7.118 3.326 3.206-4.368 10.51-4.398 13.751-.08 3.113 3.656 1.863 8.831-1.7 12.381l-12.164 12.007-12.316-12.158c-3.48-3.399-4.562-10.408-.13-13.627a8.843 8.843 0 0 1 5.442-1.874z" color="#000" overflow="visible" transform="translate(0 -1020.362)"></path>
  </symbol>

  <symbol xmlns="http://www.w3.org/2000/svg" viewBox="0 0 32 32" id="card-tipe2">
    <path fill="#f05542" fill-rule="evenodd" d="M2 16.5C6.592 13.4 12.715 7.2 15.776 1c3.061 6.2 9.184 12.4 13.776 15.5-4.592 3.1-10.715 9.3-13.776 15.5C12.715 25.8 6.592 19.6 2 16.5Z"></path>
  </symbol>

  <symbol xmlns="http://www.w3.org/2000/svg" viewBox="0 0 32 32" id="card-tipe3">
    <path fill="#373748" d="M15.665 1020.862c-3.544 0-6.417 2.776-6.417 6.2a6.04 6.04 0 0 0 .913 3.17 6.638 6.638 0 0 0-.913-.068c-3.543 0-6.415 2.775-6.415 6.198 0 3.424 2.871 6.2 6.415 6.201a6.59 6.59 0 0 0 2.499-.486 6.444 6.444 0 0 0 2.823-2.247c.064-.092.12-.19.179-.285-.623 4.903-1.103 10.549-2.933 12.317h7.699c-1.83-1.768-2.31-7.414-2.933-12.317.06.095.115.193.179.285a6.444 6.444 0 0 0 2.823 2.247 6.59 6.59 0 0 0 2.499.486c3.544 0 6.417-2.776 6.417-6.2 0-3.425-2.874-6.2-6.417-6.2-.305 0-.61.026-.911.07a6.043 6.043 0 0 0 .91-3.17c.001-3.425-2.872-6.201-6.417-6.2z" color="#000" overflow="visible" transform="translate(0 -1020.362)"></path>
  </symbol>

  <symbol xmlns="http://www.w3.org/2000/svg" version="1" viewBox="0 0 32 32" id="card-tipe4">
    <path fill="#373748" fill-rule="evenodd" stroke="#373748" stroke-linecap="round" stroke-linejoin="round" d="M15.884.5 5.359 10.357C2.387 13.11 1.461 18.792 5.248 21.4c1.31.978 2.976 1.522 4.65 1.519v-.021c1.936.15 3.753-.875 5.154-1.95-.609 4.27-1.1 8.81-2.902 10.551h7.7c-1.763-1.704-2.566-6.387-3.158-10.577 3.613 2.945 8.57 2.469 11.04-.654 2.661-2.963 1.591-7.16-1.454-10.037z"></path>
  </symbol>

  <symbol xmlns="http://www.w3.org/2000/svg" viewBox="0 0 256 256" id="jack-sword">
    <polyline fill="none"  stroke-linecap="round" stroke-linejoin="round" stroke-width="16" points="76.201 132.201 152.201 40.201 216 40 215.799 103.799 123.799 179.799"></polyline>
    <line x1="100" x2="160" y1="156" y2="96" fill="none" stroke-linecap="round" stroke-linejoin="round" stroke-width="16"></line>
    <path fill="none"  stroke-linecap="round" stroke-linejoin="round" stroke-width="16" d="M82.14214,197.45584,52.201,227.397a8,8,0,0,1-11.31371,0L28.603,215.11268a8,8,0,0,1,0-11.31371l29.94113-29.94112a8,8,0,0,0,0-11.31371L37.65685,141.65685a8,8,0,0,1,0-11.3137l12.6863-12.6863a8,8,0,0,1,11.3137,0l76.6863,76.6863a8,8,0,0,1,0,11.3137l-12.6863,12.6863a8,8,0,0,1-11.3137,0L93.45584,197.45584A8,8,0,0,0,82.14214,197.45584Z"></path>
  </symbol>

  <symbol xmlns="http://www.w3.org/2000/svg" enable-background="new 0 0 66 66" viewBox="0 0 66 66" id="queen-crown-red">
    <path fill="rgb(231, 36, 36)" d="M32.2682,40.1537c9.1624,0,12.5249-16.4973,0.6753-26.3571l-0.3274-0.2354h-0.7367l-0.2865,0.2354
		C19.8332,23.5816,23.0299,40.1537,32.2682,40.1537z M32.2682,15.9249c10.0255,9.1945,6.6491,22.1825,0,22.1825
		C25.6443,38.1074,22.1915,25.1497,32.2682,15.9249z"></path>
    <path fill="rgb(231, 36, 36)" d="M34.8764,34.6603c3.0685-3.7455,1.7246-10.8588-2.611-15.8173c-4.3355,4.9585-5.6794,12.0718-2.6109,15.8168
		C31.1938,36.5381,33.3591,36.5109,34.8764,34.6603z"></path>
    <path fill="rgb(231, 36, 36)" d="M1.2895,51.7064l0.0002,0.0007c0.1569,0.5381,0.7159,0.8443,1.2556,0.6931c20.2244-5.666,41.7403-5.4124,60.9084-0.0023
		c0.5405,0.1526,1.0995-0.1542,1.2567-0.6932c0.1594-0.5464-0.1553-1.1224-0.7029-1.2775
		c-1.6299-0.4616-3.2739-0.8867-4.9321-1.2693c1.2687-1.6064,1.985-3.622,1.985-5.74c0-5.0626-4.0485-9.1743-9.0693-9.3003
		c-0.5088-4.652-4.4583-8.2845-9.2431-8.2845v2.0464c4.0008,0,7.2552,3.2549,7.2552,7.2557s-3.2544,7.2557-7.2552,7.2557v2.0464
		c4.7774,0,8.7212-3.6216,9.2399-8.2632c3.8968,0.1142,7.0262,3.3159,7.0262,7.2439c0,2.0054-0.8287,3.8881-2.2305,5.2284
		c-25.9103-5.4443-45.2313-0.1223-48.7443,0.2661c-1.5859-1.3608-2.5272-3.3561-2.5272-5.4944c0-3.9291,3.1309-7.1317,7.0292-7.2441
		h0.0012c0.5191,4.6417,4.4629,8.2634,9.2404,8.2634v-2.0464c-4.0008,0-7.2552-3.2549-7.2552-7.2557s3.2544-7.2557,7.2552-7.2557
		v-2.0464c-4.7846,0-8.734,3.6324-9.243,8.2842c-5.0231,0.1235-9.0742,4.2364-9.0742,9.3007c0,2.2612,0.8185,4.3894,2.2408,6.0367
		c-1.2411,0.2982-2.4823,0.6218-3.7134,0.9708C1.4447,50.5806,1.13,51.1593,1.2895,51.7064z"></path>
  </symbol>

  <symbol xmlns="http://www.w3.org/2000/svg" enable-background="new 0 0 66 66" viewBox="0 0 66 66" id="queen-crown-black">
    <path fill="#000" d="M32.2682,40.1537c9.1624,0,12.5249-16.4973,0.6753-26.3571l-0.3274-0.2354h-0.7367l-0.2865,0.2354
		C19.8332,23.5816,23.0299,40.1537,32.2682,40.1537z M32.2682,15.9249c10.0255,9.1945,6.6491,22.1825,0,22.1825
		C25.6443,38.1074,22.1915,25.1497,32.2682,15.9249z"></path>
    <path fill="#000" d="M34.8764,34.6603c3.0685-3.7455,1.7246-10.8588-2.611-15.8173c-4.3355,4.9585-5.6794,12.0718-2.6109,15.8168
		C31.1938,36.5381,33.3591,36.5109,34.8764,34.6603z"></path>
    <path fill="#000" d="M1.2895,51.7064l0.0002,0.0007c0.1569,0.5381,0.7159,0.8443,1.2556,0.6931c20.2244-5.666,41.7403-5.4124,60.9084-0.0023
		c0.5405,0.1526,1.0995-0.1542,1.2567-0.6932c0.1594-0.5464-0.1553-1.1224-0.7029-1.2775
		c-1.6299-0.4616-3.2739-0.8867-4.9321-1.2693c1.2687-1.6064,1.985-3.622,1.985-5.74c0-5.0626-4.0485-9.1743-9.0693-9.3003
		c-0.5088-4.652-4.4583-8.2845-9.2431-8.2845v2.0464c4.0008,0,7.2552,3.2549,7.2552,7.2557s-3.2544,7.2557-7.2552,7.2557v2.0464
		c4.7774,0,8.7212-3.6216,9.2399-8.2632c3.8968,0.1142,7.0262,3.3159,7.0262,7.2439c0,2.0054-0.8287,3.8881-2.2305,5.2284
		c-25.9103-5.4443-45.2313-0.1223-48.7443,0.2661c-1.5859-1.3608-2.5272-3.3561-2.5272-5.4944c0-3.9291,3.1309-7.1317,7.0292-7.2441
		h0.0012c0.5191,4.6417,4.4629,8.2634,9.2404,8.2634v-2.0464c-4.0008,0-7.2552-3.2549-7.2552-7.2557s3.2544-7.2557,7.2552-7.2557
		v-2.0464c-4.7846,0-8.734,3.6324-9.243,8.2842c-5.0231,0.1235-9.0742,4.2364-9.0742,9.3007c0,2.2612,0.8185,4.3894,2.2408,6.0367
		c-1.2411,0.2982-2.4823,0.6218-3.7134,0.9708C1.4447,50.5806,1.13,51.1593,1.2895,51.7064z"></path>
  </symbol>

  <symbol xmlns="http://www.w3.org/2000/svg" enable-background="new 0 0 66 66" viewBox="0 0 66 66" id="king-crown">
    <path d="M55.152 48.547H10.8434c-2.6735 0-4.8408 2.1672-4.8408 4.8407s2.1673 4.8408 4.8408 4.8408H55.152c2.6735 0 4.8407-2.1673 4.8407-4.8408S57.8255 48.547 55.152 48.547zM2 16.7733c0 2.8051 2.274 5.079 5.0791 5.079.0449 0 .0864-.012.131-.0132.2935 3.1343 2.0984 21.6005 2.5547 24.7078h46.4727c.013-.101 1.4359-12.7911 2.5531-24.7078.0444.0012.0857.0131.1303.0131 2.8051 0 5.079-2.2739 5.079-5.079 0-2.8051-2.2739-5.079-5.079-5.079-2.8051 0-5.079 2.274-5.079 5.079 0 1.013.3044 1.9516.8155 2.744-2.4057 2.1069-6.1151 5.6713-10.1962 11.2533-2.0488-3.5385-4.946-8.3436-8.4776-13.7039 1.3555-.912 2.2477-2.4596 2.2477-4.2162 0-2.8051-2.274-5.079-5.079-5.079-2.8051 0-5.0791 2.274-5.0791 5.079 0 1.668.815 3.1349 2.0566 4.0609-2.1362 3.2556-5.4058 8.364-8.6012 13.8572-4.369-6.0206-7.8588-9.1979-10.2163-11.1952.5323-.8032.8459-1.7643.8459-2.8002 0-2.8051-2.274-5.079-5.079-5.079C4.274 11.6943 2 13.9683 2 16.7733zM9.8976 20.9965c7.3263 6.188 11.0604 12.5797 11.8029 13.4856.1523-.2526 4.1375-7.392 10.2579-16.7086.3846.0931.7806.1561 1.1938.1561.322 0 .6347-.0375.9401-.0948 5.0924 7.7059 7.811 12.5686 10.1902 16.6458.5293-.6479 4.6613-7.3177 11.7658-13.5229.243.1672.5048.3071.7759.4305-1.4457 15.4508-2.1089 20.3892-2.407 23.1588H11.5803c-.2938-2.7277-.9238-7.333-2.4037-23.1592C9.4269 21.2738 9.671 21.148 9.8976 20.9965z"></path>
  </symbol>

</svg>
